<svg width="20" height="20" viewBox="0 0 20 20" fill="none" xmlns="http://www.w3.org/2000/svg">
<path d="M12.8124 14.6405C12.4921 13.9804 12.078 13.4999 11.3632 13.7929L9.95301 14.3163C8.82411 14.8397 8.26161 14.3163 7.6952 13.5272L5.15614 7.7538C4.83973 7.09364 5.00379 6.47255 5.71864 6.17958L7.69129 5.39052C8.40614 5.09364 8.29286 4.47646 7.97255 3.8163L6.28895 0.667863C5.96864 0.00770688 5.31239 -0.152449 4.59754 0.140519C3.16395 0.730363 1.98036 1.65614 1.21473 3.02724C0.277232 4.70302 0.745982 7.03505 0.933482 8.01552C1.12098 8.99599 1.77723 10.7147 2.62489 12.4765C3.47254 14.2421 4.21864 15.6288 4.8827 16.414C5.54676 17.1991 7.14051 19.3475 9.11317 19.828C10.7304 20.2186 12.4765 19.8905 13.9061 19.3007C14.621 19.0077 14.6249 18.3866 14.3046 17.7226L12.8124 14.6405ZM19.1171 5.3788L17.578 3.83974L15.2694 6.14833L12.9608 3.83974L11.4218 5.3788L13.7304 7.68739L11.4218 9.99989L12.9608 11.539L15.2694 9.23036L17.578 11.539L19.1171 9.99989L16.8085 7.6913L19.1171 5.3788Z" fill="#F84347"/>
</svg>
