<svg width="25" height="27" viewBox="0 0 25 27" fill="none" xmlns="http://www.w3.org/2000/svg">
<path d="M15.9809 19.6259C15.5681 18.775 15.0344 18.1557 14.113 18.5333L12.2955 19.208C10.8405 19.8826 10.1155 19.208 9.38544 18.191L6.11287 10.7496C5.70505 9.89878 5.91651 9.09826 6.83787 8.72065L9.3804 7.70364C10.3018 7.321 10.1557 6.52552 9.7429 5.67465L7.57294 1.61666C7.16009 0.765793 6.31425 0.559369 5.3929 0.936973C3.54516 1.69722 2.01964 2.89045 1.03283 4.65763C-0.175502 6.81753 0.428664 9.82326 0.670331 11.087C0.911998 12.3507 1.75783 14.566 2.85037 16.8366C3.9429 19.1123 4.90453 20.8996 5.76044 21.9116C6.61634 22.9236 8.6705 25.6927 11.213 26.312C13.2974 26.8154 15.5479 26.3925 17.3906 25.6323C18.312 25.2547 18.317 24.4542 17.9042 23.5983L15.9809 19.6259ZM24.107 7.68854L22.1233 5.70486L19.1478 8.68038L16.1722 5.70486L14.1886 7.68854L17.1641 10.6641L14.1886 13.6446L16.1722 15.6283L19.1478 12.6528L22.1233 15.6283L24.107 13.6446L21.1314 10.6691L24.107 7.68854Z" fill="white"/>
</svg>
