<svg width="92" height="92" viewBox="0 0 92 92" fill="none" xmlns="http://www.w3.org/2000/svg">
<path opacity="0.8" fill-rule="evenodd" clip-rule="evenodd" d="M31.0728 69.9468C20.3088 61.6513 7.6665 51.911 7.6665 35.0251C7.6665 16.3836 28.75 3.16241 45.9998 21.0871V78.5834C42.1665 78.5834 38.3332 75.6315 34.3541 72.4883C33.2924 71.6527 32.1922 70.8093 31.0728 69.9468Z" fill="#6156DF"/>
<path d="M57.6457 72.4884C68.9273 63.6026 84.3333 53.6666 84.3333 35.0289C84.3333 16.3875 63.2499 3.16633 46 21.091V78.5834C49.8333 78.5834 53.6667 75.6316 57.6457 72.4884Z" fill="#6156DF"/>
<path d="M33.2222 50.089C35.3864 50.089 37.1408 48.3346 37.1408 46.1705C37.1408 44.0063 35.3864 42.252 33.2222 42.252C31.0581 42.252 29.3037 44.0063 29.3037 46.1705C29.3037 48.3346 31.0581 50.089 33.2222 50.089Z" fill="white"/>
<path d="M46.1705 50.089C48.3346 50.089 50.089 48.3346 50.089 46.1705C50.089 44.0063 48.3346 42.252 46.1705 42.252C44.0063 42.252 42.252 44.0063 42.252 46.1705C42.252 48.3346 44.0063 50.089 46.1705 50.089Z" fill="white"/>
<path d="M59.1187 50.089C61.2829 50.089 63.0372 48.3346 63.0372 46.1705C63.0372 44.0063 61.2829 42.252 59.1187 42.252C56.9546 42.252 55.2002 44.0063 55.2002 46.1705C55.2002 48.3346 56.9546 50.089 59.1187 50.089Z" fill="white"/>
</svg>
